<svg width="146" height="27" viewBox="0 0 146 27" xmlns="http://www.w3.org/2000/svg" role="img" aria-labelledby="mvmt-title">
  <title id="mvmt-title">MVMT</title>
  <g fill="#000" fill-rule="nonzero">
    <polygon points="98.0263043 0.163985507 98.0263043 3.68173913 106.966159 3.68173913 106.966159 26.2852899 111.245652 26.2852899 111.245652 3.68173913 120.032101 3.68173913 120.032101 0.163985507"/>
    <path d="M23.8043478.195724638 15.2612319 20.3447826 6.70224638.195724638H.35442029V26.2535507h4.11021739L4.16311594 3.63413043l9.52173916 22.61942027h3.0363768L26.2958696 3.63413043 26.0102174 26.2535507h4.0097101V.195724638H23.8043478ZM55.0568116.195724638 46.9210145 19.6147826 38.8275362.195724638H34.3152899L45.6726087 26.2535507h2.5285507L59.5161594.195724638h-4.4593478ZM87.1768116.195724638 78.6336957 20.3447826 70.0905797.195724638h-6.3478261V26.2535507h4.1102174L67.5514493 3.63413043 77.0731884 26.2535507h3.0363768L89.6842029 3.63413043 89.3985507 26.2535507h4.0097102V.195724638H87.1768116Z"/>
    <path d="M134.362319 13.9599275a1.265 1.265 0 0 0 0-1.4705797L125.057464.465507246c-.312102-.407101449-.571305-.301521739-.571305.232753624V25.7457246c0 .5289855.253913.6400725.571305.2327537l9.304855-12.0185508ZM135.758841 12.4893478a1.265 1.265 0 0 0 0 1.4705797l9.304855 12.0238406c.312101.402029.571304.3015217.571304-.2327536V.703550725c0-.528985508-.253913-.640072464-.571304-.232753624l-9.304855 12.018550699Z"/>
  </g>
</svg>
